<?xml version="1.0" encoding="UTF-8" standalone="no"?>
<!DOCTYPE svg PUBLIC "-//W3C//DTD SVG 1.1//EN" "http://www.w3.org/Graphics/SVG/1.1/DTD/svg11.dtd">
<svg width="100%" height="100%" viewBox="0 0 2200 452" version="1.1" xmlns="http://www.w3.org/2000/svg" xmlns:xlink="http://www.w3.org/1999/xlink" xml:space="preserve" xmlns:serif="http://www.serif.com/" style="fill-rule:evenodd;clip-rule:evenodd;stroke-linejoin:round;stroke-miterlimit:2;">
    <g transform="matrix(1,0,0,1,-0,-1091.953044)">
        <g id="Artboard3" transform="matrix(0.886857,0,0,0.128617,-2409.178866,1091.953044)">
            <rect x="2716.54" y="0" width="2480.31" height="3507.87" style="fill:none;"/>
            <clipPath id="_clip1">
                <rect x="2716.54" y="0" width="2480.31" height="3507.87"/>
            </clipPath>
            <g clip-path="url(#_clip1)">
                <g transform="matrix(3.361634,0,0,17.865808,1845.07342,-8856.532507)">
                    <rect x="259.24" y="495.73" width="737.83" height="196.35" style="fill:rgb(12,11,6);"/>
                </g>
                <g transform="matrix(0.7004,0,0,4.829491,2650.991241,-2000.248004)">
                    <path d="M184.62,781.43C184.62,741.37 193.29,705.64 210.62,674.25C227.96,642.86 252.13,618.4 283.14,600.87C314.14,583.34 349.29,574.58 388.58,574.58C436.73,574.58 477.95,587.29 512.23,612.72C546.51,638.14 569.43,672.81 580.99,716.72L472.36,716.72C464.27,699.77 452.81,686.86 437.98,678.01C423.15,669.15 406.3,664.72 387.43,664.72C357,664.72 332.34,675.31 313.47,696.49C294.6,717.68 285.16,745.99 285.16,781.43C285.16,816.87 294.6,845.18 313.47,866.36C332.34,887.55 357,898.14 387.43,898.14C406.3,898.14 423.15,893.71 437.98,884.85C452.81,875.99 464.27,863.09 472.36,846.14L580.99,846.14C569.43,890.05 546.51,924.62 512.23,949.85C477.95,975.08 436.73,987.7 388.58,987.7C349.29,987.7 314.14,978.94 283.14,961.41C252.13,943.88 227.96,919.52 210.62,888.32C193.29,857.12 184.62,821.49 184.62,781.43Z" style="fill:white;fill-rule:nonzero;"/>
                    <path d="M788.41,989.43C756.83,989.43 728.42,982.69 703.19,969.21C677.96,955.73 658.12,936.47 643.68,911.43C629.23,886.39 622.01,857.12 622.01,823.61C622.01,790.48 629.33,761.3 643.96,736.07C658.6,710.84 678.63,691.49 704.05,678.01C729.48,664.52 757.98,657.78 789.57,657.78C821.15,657.78 849.66,664.52 875.08,678.01C900.5,691.49 920.53,710.84 935.17,736.07C949.81,761.3 957.12,790.48 957.12,823.61C957.12,856.73 949.71,885.91 934.88,911.14C920.05,936.37 899.83,955.73 874.21,969.21C848.6,982.69 820,989.43 788.41,989.43ZM788.41,903.92C807.29,903.92 823.37,896.99 836.66,883.12C849.94,869.25 856.59,849.42 856.59,823.61C856.59,797.8 850.14,777.96 837.23,764.1C824.33,750.23 808.44,743.3 789.57,743.3C770.31,743.3 754.32,750.13 741.61,763.81C728.9,777.48 722.54,797.41 722.54,823.61C722.54,849.42 728.8,869.25 741.32,883.12C753.84,896.99 769.54,903.92 788.41,903.92Z" style="fill:white;fill-rule:nonzero;"/>
                    <path d="M1206.15,658.94C1243.9,658.94 1274.04,671.17 1296.57,695.63C1319.11,720.09 1330.37,753.7 1330.37,796.45L1330.37,984.81L1232.15,984.81L1232.15,809.74C1232.15,788.17 1226.57,771.41 1215.39,759.47C1204.22,747.53 1189.2,741.56 1170.33,741.56C1151.45,741.56 1136.43,747.53 1125.26,759.47C1114.09,771.41 1108.5,788.17 1108.5,809.74L1108.5,984.81L1009.7,984.81L1009.7,662.41L1108.5,662.41L1108.5,705.16C1118.52,690.91 1132,679.64 1148.95,671.36C1165.9,663.08 1184.96,658.94 1206.15,658.94Z" style="fill:white;fill-rule:nonzero;"/>
                    <path d="M1578.82,901.03L1578.82,984.81L1528.55,984.81C1492.73,984.81 1464.81,976.05 1444.78,958.52C1424.75,940.99 1414.73,912.39 1414.73,872.72L1414.73,744.45L1375.44,744.45L1375.44,662.41L1414.73,662.41L1414.73,583.83L1513.53,583.83L1513.53,662.41L1578.24,662.41L1578.24,744.45L1513.53,744.45L1513.53,873.88C1513.53,883.5 1515.84,890.44 1520.47,894.68C1525.09,898.91 1532.79,901.03 1543.58,901.03L1578.82,901.03Z" style="fill:white;fill-rule:nonzero;"/>
                    <path d="M1683.4,628.89C1666.07,628.89 1651.91,623.79 1640.93,613.58C1629.96,603.37 1624.47,590.76 1624.47,575.74C1624.47,560.33 1629.96,547.52 1640.93,537.31C1651.91,527.11 1666.07,522 1683.4,522C1700.35,522 1714.31,527.11 1725.29,537.31C1736.27,547.52 1741.76,560.33 1741.76,575.74C1741.76,590.76 1736.27,603.37 1725.29,613.58C1714.31,623.79 1700.35,628.89 1683.4,628.89ZM1732.51,662.41L1732.51,984.81L1633.71,984.81L1633.71,662.41L1732.51,662.41Z" style="fill:white;fill-rule:nonzero;"/>
                    <path d="M2000.61,658.94C2038.36,658.94 2068.5,671.17 2091.03,695.63C2113.56,720.09 2124.83,753.7 2124.83,796.45L2124.83,984.81L2026.61,984.81L2026.61,809.74C2026.61,788.17 2021.02,771.41 2009.85,759.47C1998.68,747.53 1983.66,741.56 1964.78,741.56C1945.91,741.56 1930.89,747.53 1919.72,759.47C1908.55,771.41 1902.96,788.17 1902.96,809.74L1902.96,984.81L1804.16,984.81L1804.16,662.41L1902.96,662.41L1902.96,705.16C1912.98,690.91 1926.46,679.64 1943.41,671.36C1960.35,663.08 1979.42,658.94 2000.61,658.94Z" style="fill:white;fill-rule:nonzero;"/>
                    <g transform="matrix(1,0,0,1,-173.898211,-0.020013)">
                        <path d="M3383.83,658.94C3423.89,658.94 3455.76,671.07 3479.45,695.34C3503.14,719.61 3514.98,753.31 3514.98,796.45L3514.98,984.81L3416.76,984.81L3416.76,809.74C3416.76,788.94 3411.27,772.86 3400.29,761.5C3389.32,750.13 3374.2,744.45 3354.94,744.45C3335.68,744.45 3320.56,750.13 3309.58,761.5C3298.6,772.86 3293.11,788.94 3293.11,809.74L3293.11,984.81L3194.89,984.81L3194.89,809.74C3194.89,788.94 3189.4,772.86 3178.42,761.5C3167.45,750.13 3152.33,744.45 3133.07,744.45C3113.81,744.45 3098.69,750.13 3087.71,761.5C3076.73,772.86 3071.24,788.94 3071.24,809.74L3071.24,984.81L2972.44,984.81L2972.44,662.41L3071.24,662.41L3071.24,702.85C3081.26,689.37 3094.36,678.68 3110.53,670.78C3126.71,662.89 3145.01,658.94 3165.42,658.94C3189.69,658.94 3211.36,664.14 3230.42,674.54C3249.49,684.94 3264.42,699.77 3275.2,719.03C3286.37,701.31 3301.59,686.86 3320.85,675.69C3340.11,664.52 3361.1,658.94 3383.83,658.94Z" style="fill:white;fill-rule:nonzero;"/>
                    </g>
                    <g transform="matrix(-1,0,-0,-1,5705.682397,1647.215318)">
                        <path d="M3383.83,658.94C3423.89,658.94 3455.76,671.07 3479.45,695.34C3503.14,719.61 3514.98,753.31 3514.98,796.45L3514.98,984.81L3416.76,984.81L3416.76,809.74C3416.76,788.94 3411.27,772.86 3400.29,761.5C3389.32,750.13 3374.2,744.45 3354.94,744.45C3335.68,744.45 3320.56,750.13 3309.58,761.5C3298.6,772.86 3293.11,788.94 3293.11,809.74L3293.11,984.81L3194.89,984.81L3194.89,809.74C3194.89,788.94 3189.4,772.86 3178.42,761.5C3167.45,750.13 3152.33,744.45 3133.07,744.45C3113.81,744.45 3098.69,750.13 3087.71,761.5C3076.73,772.86 3071.24,788.94 3071.24,809.74L3071.24,984.81L2972.44,984.81L2972.44,662.41L3071.24,662.41L3071.24,702.85C3081.26,689.37 3094.36,678.68 3110.53,670.78C3126.71,662.89 3145.01,658.94 3165.42,658.94C3189.69,658.94 3211.36,664.14 3230.42,674.54C3249.49,684.94 3264.42,699.77 3275.2,719.03C3286.37,701.31 3301.59,686.86 3320.85,675.69C3340.11,664.52 3361.1,658.94 3383.83,658.94Z" style="fill:rgb(0,227,255);fill-rule:nonzero;"/>
                    </g>
                </g>
            </g>
        </g>
    </g>
</svg>
