<?xml version="1.0" encoding="UTF-8" standalone="no"?>
<!DOCTYPE svg PUBLIC "-//W3C//DTD SVG 1.1//EN" "http://www.w3.org/Graphics/SVG/1.1/DTD/svg11.dtd">
<svg width="100%" height="100%" viewBox="0 0 2200 452" version="1.1" xmlns="http://www.w3.org/2000/svg" xmlns:xlink="http://www.w3.org/1999/xlink" xml:space="preserve" xmlns:serif="http://www.serif.com/" style="fill-rule:evenodd;clip-rule:evenodd;stroke-linejoin:round;stroke-miterlimit:2;">
    <g id="Artboard1" transform="matrix(0.886857,0,0,0.128617,0,0)">
        <rect x="0" y="0" width="2480.31" height="3507.87" style="fill:none;"/>
        <g transform="matrix(0.7004,0,0,4.829491,-65.544192,-2000.248004)">
            <g transform="matrix(577.786319,0,0,577.786319,165.557029,984.810042)">
                <path d="M0.03,-0.35C0.03,-0.42 0.05,-0.48 0.08,-0.54C0.11,-0.59 0.15,-0.63 0.2,-0.66C0.26,-0.69 0.32,-0.71 0.39,-0.71C0.47,-0.71 0.54,-0.69 0.6,-0.64C0.66,-0.6 0.7,-0.54 0.72,-0.46L0.53,-0.46C0.52,-0.49 0.5,-0.52 0.47,-0.53C0.45,-0.55 0.42,-0.55 0.38,-0.55C0.33,-0.55 0.29,-0.54 0.26,-0.5C0.22,-0.46 0.21,-0.41 0.21,-0.35C0.21,-0.29 0.22,-0.24 0.26,-0.21C0.29,-0.17 0.33,-0.15 0.38,-0.15C0.42,-0.15 0.45,-0.16 0.47,-0.17C0.5,-0.19 0.52,-0.21 0.53,-0.24L0.72,-0.24C0.7,-0.16 0.66,-0.1 0.6,-0.06C0.54,-0.02 0.47,0.01 0.39,0.01C0.32,0.01 0.26,-0.01 0.2,-0.04C0.15,-0.07 0.11,-0.11 0.08,-0.17C0.05,-0.22 0.03,-0.28 0.03,-0.35Z" style="fill-rule:nonzero;"/>
            </g>
            <g transform="matrix(577.786319,0,0,577.786319,605.830204,984.810042)">
                <path d="M0.32,0.01C0.26,0.01 0.21,-0 0.17,-0.03C0.12,-0.05 0.09,-0.08 0.07,-0.13C0.04,-0.17 0.03,-0.22 0.03,-0.28C0.03,-0.34 0.04,-0.39 0.07,-0.43C0.09,-0.47 0.13,-0.51 0.17,-0.53C0.21,-0.55 0.26,-0.57 0.32,-0.57C0.37,-0.57 0.42,-0.55 0.47,-0.53C0.51,-0.51 0.54,-0.47 0.57,-0.43C0.6,-0.39 0.61,-0.34 0.61,-0.28C0.61,-0.22 0.6,-0.17 0.57,-0.13C0.54,-0.08 0.51,-0.05 0.46,-0.03C0.42,-0 0.37,0.01 0.32,0.01ZM0.32,-0.14C0.35,-0.14 0.38,-0.15 0.4,-0.18C0.42,-0.2 0.43,-0.23 0.43,-0.28C0.43,-0.32 0.42,-0.36 0.4,-0.38C0.38,-0.41 0.35,-0.42 0.32,-0.42C0.28,-0.42 0.26,-0.41 0.24,-0.38C0.21,-0.36 0.2,-0.32 0.2,-0.28C0.2,-0.23 0.21,-0.2 0.23,-0.18C0.26,-0.15 0.28,-0.14 0.32,-0.14Z" style="fill-rule:nonzero;"/>
            </g>
            <g transform="matrix(577.786319,0,0,577.786319,973.880089,984.810042)">
                <path d="M0.4,-0.56C0.47,-0.56 0.52,-0.54 0.56,-0.5C0.6,-0.46 0.62,-0.4 0.62,-0.33L0.62,-0L0.45,-0L0.45,-0.3C0.45,-0.34 0.44,-0.37 0.42,-0.39C0.4,-0.41 0.37,-0.42 0.34,-0.42C0.31,-0.42 0.28,-0.41 0.26,-0.39C0.24,-0.37 0.23,-0.34 0.23,-0.3L0.23,-0L0.06,-0L0.06,-0.56L0.23,-0.56L0.23,-0.48C0.25,-0.51 0.27,-0.53 0.3,-0.54C0.33,-0.56 0.37,-0.56 0.4,-0.56Z" style="fill-rule:nonzero;"/>
            </g>
            <g transform="matrix(577.786319,0,0,577.786319,1363.308068,984.810042)">
                <path d="M0.37,-0.14L0.37,-0L0.29,-0C0.22,-0 0.18,-0.02 0.14,-0.05C0.11,-0.08 0.09,-0.13 0.09,-0.19L0.09,-0.42L0.02,-0.42L0.02,-0.56L0.09,-0.56L0.09,-0.69L0.26,-0.69L0.26,-0.56L0.37,-0.56L0.37,-0.42L0.26,-0.42L0.26,-0.19C0.26,-0.18 0.26,-0.16 0.27,-0.16C0.28,-0.15 0.29,-0.14 0.31,-0.14L0.37,-0.14Z" style="fill-rule:nonzero;"/>
            </g>
            <g transform="matrix(577.786319,0,0,577.786319,1597.889314,984.810042)">
                <path d="M0.15,-0.62C0.12,-0.62 0.09,-0.62 0.07,-0.64C0.06,-0.66 0.05,-0.68 0.05,-0.71C0.05,-0.73 0.06,-0.76 0.07,-0.77C0.09,-0.79 0.12,-0.8 0.15,-0.8C0.18,-0.8 0.2,-0.79 0.22,-0.77C0.24,-0.76 0.25,-0.73 0.25,-0.71C0.25,-0.68 0.24,-0.66 0.22,-0.64C0.2,-0.62 0.18,-0.62 0.15,-0.62ZM0.23,-0.56L0.23,-0L0.06,-0L0.06,-0.56L0.23,-0.56Z" style="fill-rule:nonzero;"/>
            </g>
            <g transform="matrix(577.786319,0,0,577.786319,1768.336278,984.810042)">
                <path d="M0.4,-0.56C0.47,-0.56 0.52,-0.54 0.56,-0.5C0.6,-0.46 0.62,-0.4 0.62,-0.33L0.62,-0L0.45,-0L0.45,-0.3C0.45,-0.34 0.44,-0.37 0.42,-0.39C0.4,-0.41 0.37,-0.42 0.34,-0.42C0.31,-0.42 0.28,-0.41 0.26,-0.39C0.24,-0.37 0.23,-0.34 0.23,-0.3L0.23,-0L0.06,-0L0.06,-0.56L0.23,-0.56L0.23,-0.48C0.25,-0.51 0.27,-0.53 0.3,-0.54C0.33,-0.56 0.37,-0.56 0.4,-0.56Z" style="fill-rule:nonzero;"/>
            </g>
            <g transform="matrix(577.786319,0,0,577.786319,2157.764257,984.810042)">
                <path d="M0.61,-0.56L0.61,-0L0.44,-0L0.44,-0.08C0.42,-0.05 0.4,-0.03 0.37,-0.02C0.34,-0 0.31,0.01 0.27,0.01C0.23,0.01 0.19,-0 0.16,-0.02C0.13,-0.04 0.1,-0.07 0.08,-0.1C0.07,-0.14 0.06,-0.18 0.06,-0.23L0.06,-0.56L0.23,-0.56L0.23,-0.26C0.23,-0.22 0.24,-0.19 0.26,-0.17C0.28,-0.15 0.3,-0.14 0.33,-0.14C0.37,-0.14 0.39,-0.15 0.41,-0.17C0.43,-0.19 0.44,-0.22 0.44,-0.26L0.44,-0.56L0.61,-0.56Z" style="fill:rgb(0,48,255);fill-rule:nonzero;"/>
            </g>
            <g transform="matrix(577.786319,0,0,577.786319,2547.192236,984.810042)">
                <path d="M0.61,-0.56L0.61,-0L0.44,-0L0.44,-0.08C0.42,-0.05 0.4,-0.03 0.37,-0.02C0.34,-0 0.31,0.01 0.27,0.01C0.23,0.01 0.19,-0 0.16,-0.02C0.13,-0.04 0.1,-0.07 0.08,-0.1C0.07,-0.14 0.06,-0.18 0.06,-0.23L0.06,-0.56L0.23,-0.56L0.23,-0.26C0.23,-0.22 0.24,-0.19 0.26,-0.17C0.28,-0.15 0.3,-0.14 0.33,-0.14C0.37,-0.14 0.39,-0.15 0.41,-0.17C0.43,-0.19 0.44,-0.22 0.44,-0.26L0.44,-0.56L0.61,-0.56Z" style="fill:rgb(0,48,255);fill-rule:nonzero;"/>
            </g>
            <g transform="matrix(577.786319,0,0,577.786319,2936.620215,984.810042)">
                <path d="M0.77,-0.56C0.84,-0.56 0.9,-0.54 0.94,-0.5C0.98,-0.46 1,-0.4 1,-0.33L1,-0L0.83,-0L0.83,-0.3C0.83,-0.34 0.82,-0.37 0.8,-0.39C0.78,-0.41 0.76,-0.42 0.72,-0.42C0.69,-0.42 0.66,-0.41 0.65,-0.39C0.63,-0.37 0.62,-0.34 0.62,-0.3L0.62,-0L0.45,-0L0.45,-0.3C0.45,-0.34 0.44,-0.37 0.42,-0.39C0.4,-0.41 0.37,-0.42 0.34,-0.42C0.31,-0.42 0.28,-0.41 0.26,-0.39C0.24,-0.37 0.23,-0.34 0.23,-0.3L0.23,-0L0.06,-0L0.06,-0.56L0.23,-0.56L0.23,-0.49C0.25,-0.51 0.27,-0.53 0.3,-0.54C0.33,-0.56 0.36,-0.56 0.4,-0.56C0.44,-0.56 0.48,-0.56 0.51,-0.54C0.54,-0.52 0.57,-0.49 0.59,-0.46C0.61,-0.49 0.63,-0.52 0.67,-0.54C0.7,-0.55 0.73,-0.56 0.77,-0.56Z" style="fill-rule:nonzero;"/>
            </g>
        </g>
    </g>
</svg>
